<svg width="41" height="40" viewBox="0 0 41 40" fill="none" xmlns="http://www.w3.org/2000/svg">
<path d="M28.3638 32.9322L27.2886 24.4241C27.1362 23.219 26.5436 22.1104 25.6222 21.3068C24.7008 20.5033 23.5141 20.06 22.2852 20.0605H18.5823C17.354 20.0608 16.1682 20.5044 15.2475 21.3079C14.3268 22.1115 13.7347 23.2196 13.5824 24.4241L12.5054 32.9322C12.4463 33.3996 12.4885 33.8741 12.6292 34.3242C12.7699 34.7743 13.0059 35.1897 13.3215 35.5427C13.637 35.8957 14.025 36.1784 14.4596 36.3718C14.8942 36.5653 15.3654 36.6652 15.8421 36.6649H25.0288C25.5053 36.665 25.9764 36.5649 26.4108 36.3713C26.8452 36.1777 27.2329 35.8951 27.5483 35.5421C27.8637 35.1891 28.0996 34.7738 28.2402 34.3238C28.3807 33.8739 28.4229 33.3995 28.3638 32.9322V32.9322Z" stroke="black" stroke-width="2" stroke-linecap="round" stroke-linejoin="round"/>
<path d="M20.4358 13.4187C23.2195 13.4187 25.4761 11.1885 25.4761 8.43743C25.4761 5.68632 23.2195 3.45612 20.4358 3.45612C17.6521 3.45612 15.3955 5.68632 15.3955 8.43743C15.3955 11.1885 17.6521 13.4187 20.4358 13.4187Z" stroke="black" stroke-width="2"/>
<path d="M6.99495 18.4C8.85073 18.4 10.3551 16.9132 10.3551 15.0792C10.3551 13.2451 8.85073 11.7583 6.99495 11.7583C5.13917 11.7583 3.63477 13.2451 3.63477 15.0792C3.63477 16.9132 5.13917 18.4 6.99495 18.4Z" stroke="black" stroke-width="2"/>
<path d="M33.8758 18.4C35.7316 18.4 37.236 16.9132 37.236 15.0792C37.236 13.2451 35.7316 11.7583 33.8758 11.7583C32.02 11.7583 30.5156 13.2451 30.5156 15.0792C30.5156 16.9132 32.02 18.4 33.8758 18.4Z" stroke="black" stroke-width="2"/>
<path d="M6.99472 23.3813H6.48061C5.68519 23.3813 4.91553 23.66 4.30855 24.1681C3.70157 24.6761 3.29664 25.3805 3.16579 26.1559L2.60632 29.4768C2.52603 29.9526 2.55159 30.44 2.6812 30.905C2.81082 31.3701 3.04138 31.8016 3.35687 32.1697C3.67235 32.5377 4.06517 32.8334 4.50801 33.0362C4.95085 33.239 5.43307 33.344 5.92114 33.344H12.035M33.8762 23.3813H34.3903C35.1857 23.3813 35.9554 23.66 36.5624 24.1681C37.1693 24.6761 37.5743 25.3805 37.7051 26.1559L38.2646 29.4768C38.3449 29.9526 38.3193 30.44 38.1897 30.905C38.0601 31.3701 37.8295 31.8016 37.5141 32.1697C37.1986 32.5377 36.8057 32.8334 36.3629 33.0362C35.9201 33.239 35.4378 33.344 34.9498 33.344H28.8359" stroke="black" stroke-width="2" stroke-linecap="round" stroke-linejoin="round"/>
</svg>
