<svg width="42" height="40" viewBox="0 0 42 40" fill="none" xmlns="http://www.w3.org/2000/svg">
<path d="M24.3564 31.6836C30.692 31.6836 33.8607 31.6836 35.8281 29.7375C37.7971 27.7932 37.7971 24.6616 37.7971 18.4001C37.7971 12.1386 37.7971 9.00698 35.8281 7.06261C33.8607 5.11658 30.692 5.11658 24.3564 5.11658H17.636C11.3004 5.11658 8.13177 5.11658 6.16438 7.06261C4.19531 9.00698 4.19531 12.1386 4.19531 18.4001C4.19531 24.6616 4.19531 27.7932 6.16438 29.7375C7.26148 30.8235 8.73156 31.3033 10.9157 31.5142" stroke="#151212" stroke-opacity="0.7" stroke-width="2" stroke-linecap="round" stroke-linejoin="round"/>
<path d="M24.356 31.6836C22.2794 31.6836 19.9911 32.5138 17.9027 33.5848C14.5459 35.3067 12.8675 36.1684 12.0409 35.6188C11.2143 35.0709 11.3705 33.3689 11.6847 29.9667L11.7553 29.1929" stroke="#151212" stroke-opacity="0.7" stroke-width="2" stroke-linecap="round"/>
</svg>
