<svg width="41" height="40" viewBox="0 0 41 40" fill="none" xmlns="http://www.w3.org/2000/svg">
<path d="M34.9857 20.905C35.6472 20.0411 36.0134 18.9825 36.0134 17.8812C36.0134 16.1339 35.0251 14.4799 33.4342 13.5576C33.0247 13.3202 32.5584 13.1952 32.0836 13.1957H22.641L22.8772 8.41282C22.9324 7.257 22.5189 6.15955 21.7156 5.32285C21.3214 4.91044 20.8458 4.58232 20.3182 4.35875C19.7906 4.13519 19.2222 4.02093 18.6481 4.02304C16.6005 4.02304 14.7892 5.38512 14.2458 7.33483L10.8633 19.4379H5.77179C5.07481 19.4379 4.51172 19.9944 4.51172 20.6832V34.8488C4.51172 35.5376 5.07481 36.0941 5.77179 36.0941H29.4493C29.8115 36.0941 30.1659 36.0241 30.4928 35.884C32.3671 35.094 33.576 33.2844 33.576 31.2763C33.576 30.7859 33.5051 30.3034 33.3634 29.8364C34.0249 28.9724 34.3911 27.9139 34.3911 26.8125C34.3911 26.3222 34.3202 25.8396 34.1785 25.3726C34.84 24.5087 35.2062 23.4502 35.2062 22.3488C35.1983 21.8585 35.1275 21.372 34.9857 20.905ZM7.34687 33.2921V22.2399H10.5364V33.2921H7.34687ZM32.4065 19.5546L31.5441 20.294L32.0915 21.2825C32.2718 21.6081 32.3653 21.9737 32.3632 22.3449C32.3632 22.987 32.0797 23.598 31.5914 24.0183L30.729 24.7577L31.2764 25.7462C31.4567 26.0718 31.5502 26.4375 31.5481 26.8086C31.5481 27.4508 31.2646 28.0618 30.7763 28.4821L29.9139 29.2215L30.4613 30.2099C30.6416 30.5356 30.7351 30.9012 30.733 31.2724C30.733 32.1441 30.2132 32.9302 29.4099 33.2882H13.0566V22.1153L16.9746 8.08592C17.0756 7.72633 17.2925 7.40909 17.5924 7.18227C17.8922 6.95544 18.2587 6.83139 18.6363 6.82892C18.9356 6.82892 19.2309 6.91453 19.4672 7.08966C19.857 7.37764 20.0657 7.81351 20.0421 8.27661L19.664 15.9976H32.0442C32.7451 16.4218 33.1783 17.1379 33.1783 17.8812C33.1783 18.5233 32.8948 19.1304 32.4065 19.5546Z" fill="#151212" fill-opacity="0.7"/>
</svg>
