<svg width="30" height="28" viewBox="0 0 30 28" fill="none" xmlns="http://www.w3.org/2000/svg">
<g clip-path="url(#clip0_3007_35)">
<path d="M16.1806 11.392C16.1806 11.1716 16.0862 10.9603 15.9184 10.8044C15.7505 10.6486 15.5228 10.5611 15.2854 10.5611C15.048 10.5611 14.8203 10.6486 14.6525 10.8044C14.4846 10.9603 14.3903 11.1716 14.3903 11.392V17.6948L12.3386 15.7889C12.2554 15.7116 12.1566 15.6503 12.0479 15.6085C11.9391 15.5667 11.8226 15.5452 11.7049 15.5452C11.5872 15.5452 11.4706 15.5667 11.3619 15.6085C11.2531 15.6503 11.1543 15.7116 11.0711 15.7889C10.9879 15.8661 10.9219 15.9578 10.8768 16.0587C10.8318 16.1597 10.8086 16.2679 10.8086 16.3771C10.8086 16.4863 10.8318 16.5945 10.8768 16.6955C10.9219 16.7964 10.9879 16.8881 11.0711 16.9653L14.6517 20.2888C14.7348 20.3662 14.8336 20.4275 14.9423 20.4694C15.0511 20.5113 15.1677 20.5329 15.2854 20.5329C15.4032 20.5329 15.5197 20.5113 15.6285 20.4694C15.7372 20.4275 15.836 20.3662 15.9192 20.2888L19.4997 16.9653C19.583 16.8881 19.649 16.7964 19.694 16.6955C19.7391 16.5945 19.7622 16.4863 19.7622 16.3771C19.7622 16.2679 19.7391 16.1597 19.694 16.0587C19.649 15.9578 19.583 15.8661 19.4997 15.7889C19.4165 15.7116 19.3177 15.6503 19.209 15.6085C19.1002 15.5667 18.9837 15.5452 18.866 15.5452C18.7483 15.5452 18.6317 15.5667 18.523 15.6085C18.4142 15.6503 18.3154 15.7116 18.2322 15.7889L16.1806 17.6948V11.392Z" fill="#18C73E"/>
<path d="M26.0263 23.8548V8.06854L17.9701 0.59082H8.12352C7.1739 0.59082 6.26317 0.940967 5.59169 1.56423C4.9202 2.18749 4.54297 3.03282 4.54297 3.91425V23.8548C4.54297 24.7363 4.9202 25.5816 5.59169 26.2049C6.26317 26.8281 7.1739 27.1783 8.12352 27.1783H22.4457C23.3954 27.1783 24.3061 26.8281 24.9776 26.2049C25.6491 25.5816 26.0263 24.7363 26.0263 23.8548ZM17.9701 5.57597C17.9701 6.23704 18.253 6.87103 18.7566 7.33848C19.2602 7.80593 19.9433 8.06854 20.6555 8.06854H24.236V23.8548C24.236 24.2955 24.0474 24.7182 23.7117 25.0298C23.3759 25.3415 22.9206 25.5166 22.4457 25.5166H8.12352C7.64871 25.5166 7.19335 25.3415 6.85761 25.0298C6.52186 24.7182 6.33325 24.2955 6.33325 23.8548V3.91425C6.33325 3.47354 6.52186 3.05087 6.85761 2.73924C7.19335 2.42761 7.64871 2.25254 8.12352 2.25254H17.9701V5.57597Z" fill="#18C73E"/>
</g>
<defs>
<clipPath id="clip0_3007_35">
<rect width="28.6444" height="26.5874" fill="white" transform="translate(0.960938 0.59082)"/>
</clipPath>
</defs>
</svg>
