<svg width="42" height="40" viewBox="0 0 42 40" fill="none" xmlns="http://www.w3.org/2000/svg">
<path d="M31.6749 26.7023C30.9205 26.7051 30.1745 26.8586 29.4816 27.1534C28.7887 27.4482 28.1632 27.8784 27.6427 28.4181L13.9891 21.6656C14.325 20.6591 14.325 19.5726 13.9891 18.5661L27.6651 11.6919C28.6446 12.7121 29.973 13.3359 31.3921 13.4421C32.8111 13.5482 34.2194 13.1292 35.3432 12.2663C36.467 11.4035 37.226 10.1585 37.4728 8.77333C37.7195 7.3882 37.4363 5.96187 36.6783 4.77158C35.9202 3.58129 34.7415 2.71207 33.3711 2.33287C32.0007 1.95368 30.5366 2.09159 29.2634 2.71981C27.9901 3.34803 26.9987 4.42167 26.4818 5.73206C25.965 7.04244 25.9595 8.49596 26.4666 9.81009L12.9251 16.6179C12.1937 15.7339 11.2036 15.0951 10.0905 14.7891C8.97743 14.4831 7.7958 14.5248 6.70763 14.9085C5.61945 15.2922 4.67799 15.9991 4.01229 16.9324C3.3466 17.8656 2.98926 18.9796 2.98926 20.1214C2.98926 21.2633 3.3466 22.3772 4.01229 23.3104C4.67799 24.2437 5.61945 24.9506 6.70763 25.3343C7.7958 25.718 8.97743 25.7597 10.0905 25.4537C11.2036 25.1477 12.1937 24.5089 12.9251 23.6249L26.433 30.3442C26.2048 30.9498 26.0872 31.5907 26.0858 32.2371C26.0858 33.3317 26.4142 34.4018 27.0296 35.312C27.645 36.2222 28.5196 36.9316 29.5429 37.3505C30.5663 37.7695 31.6923 37.8791 32.7786 37.6655C33.865 37.4519 34.8629 36.9248 35.6461 36.1507C36.4293 35.3767 36.9627 34.3905 37.1788 33.3168C37.3949 32.2432 37.284 31.1303 36.8601 30.119C36.4362 29.1076 35.7184 28.2432 34.7974 27.635C33.8765 27.0269 32.7937 26.7023 31.6861 26.7023H31.6749ZM31.6749 4.5631C32.3395 4.5631 32.9891 4.75787 33.5417 5.12277C34.0943 5.48767 34.525 6.00632 34.7793 6.61313C35.0336 7.21994 35.1001 7.88766 34.9705 8.53185C34.8408 9.17604 34.5208 9.76776 34.0509 10.2322C33.581 10.6966 32.9822 11.0129 32.3304 11.141C31.6786 11.2692 31.003 11.2034 30.389 10.9521C29.775 10.7007 29.2502 10.2751 28.881 9.72896C28.5118 9.18284 28.3147 8.54079 28.3147 7.88398C28.3147 7.00323 28.6687 6.15855 29.2989 5.53577C29.929 4.91298 30.7837 4.5631 31.6749 4.5631ZM8.68002 23.3814C8.01544 23.3814 7.36578 23.1866 6.8132 22.8217C6.26062 22.4568 5.82994 21.9382 5.57561 21.3314C5.32129 20.7246 5.25475 20.0568 5.3844 19.4126C5.51405 18.7685 5.83408 18.1767 6.30401 17.7123C6.77394 17.2479 7.37267 16.9316 8.02448 16.8035C8.67629 16.6753 9.35191 16.7411 9.96591 16.9924C10.5799 17.2438 11.1047 17.6694 11.4739 18.2155C11.8431 18.7617 12.0402 19.4037 12.0402 20.0605C12.0402 20.9413 11.6862 21.7859 11.056 22.4087C10.4259 23.0315 9.5712 23.3814 8.68002 23.3814ZM31.6749 35.5579C31.0103 35.5579 30.3606 35.3632 29.8081 34.9983C29.2555 34.6334 28.8248 34.1147 28.5705 33.5079C28.3161 32.9011 28.2496 32.2334 28.3793 31.5892C28.5089 30.945 28.8289 30.3533 29.2989 29.8888C29.7688 29.4244 30.3675 29.1081 31.0193 28.98C31.6712 28.8519 32.3468 28.9176 32.9608 29.169C33.5748 29.4203 34.0995 29.846 34.4688 30.3921C34.838 30.9382 35.0351 31.5803 35.0351 32.2371C35.0351 33.1178 34.681 33.9625 34.0509 34.5853C33.4207 35.2081 32.5661 35.5579 31.6749 35.5579Z" fill="#151212" fill-opacity="0.7"/>
</svg>
