<svg width="27" height="25" viewBox="0 0 27 25" fill="none" xmlns="http://www.w3.org/2000/svg">
<path d="M18.8091 21.221L18.0891 15.4565C17.9871 14.64 17.5902 13.8889 16.9733 13.3444C16.3563 12.8 15.5617 12.4997 14.7388 12.5H12.2593C11.4369 12.5002 10.6428 12.8008 10.0263 13.3452C9.40981 13.8896 9.01333 14.6404 8.91134 15.4565L8.19022 21.221C8.15064 21.5377 8.17889 21.8592 8.2731 22.1641C8.36731 22.4691 8.52532 22.7505 8.73664 22.9897C8.94795 23.2289 9.20773 23.4204 9.49874 23.5515C9.78974 23.6826 10.1053 23.7502 10.4245 23.75H16.576C16.895 23.7501 17.2105 23.6823 17.5013 23.5511C17.7922 23.42 18.0519 23.2284 18.263 22.9893C18.4742 22.7501 18.6321 22.4687 18.7263 22.1639C18.8204 21.859 18.8487 21.5376 18.8091 21.221V21.221Z" stroke="#18C73E" stroke-width="2" stroke-linecap="round" stroke-linejoin="round"/>
<path d="M13.5 8C15.364 8 16.875 6.48896 16.875 4.625C16.875 2.76104 15.364 1.25 13.5 1.25C11.636 1.25 10.125 2.76104 10.125 4.625C10.125 6.48896 11.636 8 13.5 8Z" stroke="#18C73E" stroke-width="2"/>
<path d="M4.5 11.375C5.74264 11.375 6.75 10.3676 6.75 9.125C6.75 7.88236 5.74264 6.875 4.5 6.875C3.25736 6.875 2.25 7.88236 2.25 9.125C2.25 10.3676 3.25736 11.375 4.5 11.375Z" stroke="#18C73E" stroke-width="2"/>
<path d="M22.5 11.375C23.7426 11.375 24.75 10.3676 24.75 9.125C24.75 7.88236 23.7426 6.875 22.5 6.875C21.2574 6.875 20.25 7.88236 20.25 9.125C20.25 10.3676 21.2574 11.375 22.5 11.375Z" stroke="#18C73E" stroke-width="2"/>
<path d="M4.5004 14.75H4.15615C3.62353 14.7499 3.10816 14.9388 2.70172 15.283C2.29529 15.6273 2.02414 16.1045 1.93653 16.6299L1.5619 18.8799C1.50814 19.2022 1.52525 19.5324 1.61204 19.8475C1.69883 20.1626 1.85322 20.455 2.06447 20.7044C2.27572 20.9537 2.53875 21.1541 2.83528 21.2915C3.13181 21.4289 3.45471 21.5 3.78153 21.5H7.8754M22.5004 14.75H22.8447C23.3773 14.7499 23.8926 14.9388 24.2991 15.283C24.7055 15.6273 24.9767 16.1045 25.0643 16.6299L25.4389 18.8799C25.4927 19.2022 25.4756 19.5324 25.3888 19.8475C25.302 20.1626 25.1476 20.455 24.9363 20.7044C24.7251 20.9537 24.462 21.1541 24.1655 21.2915C23.869 21.4289 23.5461 21.5 23.2193 21.5H19.1254" stroke="#18C73E" stroke-width="2" stroke-linecap="round" stroke-linejoin="round"/>
</svg>
