<svg width="28" height="28" viewBox="0 0 28 28" fill="none" xmlns="http://www.w3.org/2000/svg">
<path d="M22.1667 17.5C22.7855 17.5 23.379 17.7458 23.8166 18.1834C24.2542 18.621 24.5 19.2145 24.5 19.8333V22.1667C24.5 22.7855 24.2542 23.379 23.8166 23.8166C23.379 24.2542 22.7855 24.5 22.1667 24.5H19.8333C19.2145 24.5 18.621 24.2542 18.1834 23.8166C17.7458 23.379 17.5 22.7855 17.5 22.1667V19.8333C17.5 19.2145 17.7458 18.621 18.1834 18.1834C18.621 17.7458 19.2145 17.5 19.8333 17.5V15.1667H8.16667V17.5C8.7855 17.5 9.379 17.7458 9.81658 18.1834C10.2542 18.621 10.5 19.2145 10.5 19.8333V22.1667C10.5 22.7855 10.2542 23.379 9.81658 23.8166C9.379 24.2542 8.7855 24.5 8.16667 24.5H5.83333C5.21449 24.5 4.621 24.2542 4.18342 23.8166C3.74583 23.379 3.5 22.7855 3.5 22.1667V19.8333C3.5 19.2145 3.74583 18.621 4.18342 18.1834C4.621 17.7458 5.21449 17.5 5.83333 17.5V15.1667C5.83333 14.5478 6.07917 13.9543 6.51675 13.5168C6.95434 13.0792 7.54783 12.8333 8.16667 12.8333H12.8333V10.5C12.2145 10.5 11.621 10.2542 11.1834 9.81658C10.7458 9.379 10.5 8.7855 10.5 8.16667V5.83333C10.5 5.21449 10.7458 4.621 11.1834 4.18342C11.621 3.74583 12.2145 3.5 12.8333 3.5H15.1667C15.7855 3.5 16.379 3.74583 16.8166 4.18342C17.2542 4.621 17.5 5.21449 17.5 5.83333V8.16667C17.5 8.7855 17.2542 9.379 16.8166 9.81658C16.379 10.2542 15.7855 10.5 15.1667 10.5V12.8333H19.8333C20.4522 12.8333 21.0457 13.0792 21.4832 13.5168C21.9208 13.9543 22.1667 14.5478 22.1667 15.1667V17.5ZM5.83333 19.8333V22.1667H8.16667V19.8333H5.83333ZM19.8333 19.8333V22.1667H22.1667V19.8333H19.8333ZM12.8333 5.83333V8.16667H15.1667V5.83333H12.8333Z" fill="#18C73E"/>
</svg>
