<svg width="30" height="29" viewBox="0 0 30 29" fill="none" xmlns="http://www.w3.org/2000/svg">
<path d="M17.4756 5.18575L19.6278 7.51037H24.3908V21.458H5.57381V7.51037H10.3369L12.4891 5.18575H17.4756ZM18.5105 2.86114H11.4541L9.30193 5.18575H5.57381C4.28014 5.18575 3.22168 6.23183 3.22168 7.51037V21.458C3.22168 22.7366 4.28014 23.7827 5.57381 23.7827H24.3908C25.6845 23.7827 26.743 22.7366 26.743 21.458V7.51037C26.743 6.23183 25.6845 5.18575 24.3908 5.18575H20.6627L18.5105 2.86114ZM14.9823 10.9973C16.9228 10.9973 18.5105 12.5664 18.5105 14.4842C18.5105 16.402 16.9228 17.9711 14.9823 17.9711C13.0418 17.9711 11.4541 16.402 11.4541 14.4842C11.4541 12.5664 13.0418 10.9973 14.9823 10.9973ZM14.9823 8.67267C11.7364 8.67267 9.102 11.2762 9.102 14.4842C9.102 17.6922 11.7364 20.2957 14.9823 20.2957C18.2283 20.2957 20.8626 17.6922 20.8626 14.4842C20.8626 11.2762 18.2283 8.67267 14.9823 8.67267Z" fill="#18C73E"/>
</svg>
