<svg width="32" height="30" viewBox="0 0 32 30" fill="none" xmlns="http://www.w3.org/2000/svg">
<path d="M29.5534 5.08202L28.3258 5.41585L6.35522 11.6197H2.69922V18.7413H6.35618L8.24365 19.2701L8.21487 19.3529V19.3814C7.59914 21.2615 8.73949 23.3517 10.8523 23.9428C10.8619 23.9455 10.8734 23.9401 10.8811 23.9428C12.9172 24.517 15.1711 23.471 15.7973 21.4947L15.8261 21.411L28.3258 24.9452L29.5534 25.2781V5.08202ZM27.6352 7.47489V22.8861L6.80407 16.9876L6.6861 16.9609H4.61737V13.4001H6.68514L6.80503 13.3734L27.6352 7.474V7.47489ZM10.0716 19.798L13.9981 20.884L13.9693 20.9668V20.9935C13.6394 22.0351 12.4482 22.5443 11.422 22.2461C10.2999 21.9407 9.72254 20.8627 10.0429 19.9093V19.8826L10.0716 19.798Z" fill="black"/>
</svg>
