<svg width="23" height="23" viewBox="0 0 23 23" fill="none" xmlns="http://www.w3.org/2000/svg">
<path d="M21.3587 12.0721C21.8017 11.4868 22.0469 10.7696 22.0469 10.0234C22.0469 8.83952 21.3851 7.71892 20.3198 7.09401C20.0456 6.93316 19.7334 6.8485 19.4154 6.8488H13.0926L13.2508 3.60827C13.2877 2.82517 13.0108 2.08161 12.4729 1.51472C12.209 1.2353 11.8905 1.01298 11.5372 0.86151C11.1839 0.710036 10.8033 0.632623 10.4189 0.634053C9.04785 0.634053 7.83496 1.5569 7.47109 2.8779L5.20615 11.0781H1.79688C1.33018 11.0781 0.953125 11.4551 0.953125 11.9218V21.5195C0.953125 21.9862 1.33018 22.3633 1.79688 22.3633H17.6515C17.894 22.3633 18.1313 22.3158 18.3502 22.2209C19.6053 21.6856 20.4147 20.4595 20.4147 19.099C20.4147 18.7668 20.3673 18.4398 20.2724 18.1234C20.7153 17.5381 20.9605 16.8209 20.9605 16.0747C20.9605 15.7424 20.9131 15.4155 20.8182 15.0991C21.2611 14.5137 21.5063 13.7966 21.5063 13.0504C21.5011 12.7181 21.4536 12.3885 21.3587 12.0721ZM2.85156 20.4648V12.9765H4.9873V20.4648H2.85156ZM19.6316 11.1572L19.0542 11.6582L19.4207 12.3279C19.5415 12.5485 19.6041 12.7962 19.6026 13.0477C19.6026 13.4828 19.4128 13.8967 19.0858 14.1815L18.5084 14.6825L18.8749 15.3522C18.9956 15.5728 19.0583 15.8205 19.0568 16.072C19.0568 16.5071 18.867 16.9211 18.54 17.2058L17.9626 17.7068L18.3291 18.3765C18.4498 18.5971 18.5125 18.8449 18.511 19.0964C18.511 19.687 18.163 20.2196 17.6251 20.4622H6.6748V12.8922L9.29834 3.38679C9.36599 3.14316 9.51121 2.92821 9.712 2.77453C9.91278 2.62085 10.1582 2.5368 10.411 2.53513C10.6114 2.53513 10.8092 2.59313 10.9674 2.71179C11.2284 2.9069 11.3682 3.20222 11.3523 3.51599L11.0992 8.74724H19.3891C19.8584 9.03464 20.1484 9.51979 20.1484 10.0234C20.1484 10.4585 19.9586 10.8698 19.6316 11.1572Z" fill="#18C73E"/>
</svg>
